<svg width="1440" height="900" viewBox="0 0 1440 900" fill="none" xmlns="http://www.w3.org/2000/svg">
  <rect width="1440" height="900" fill="#000000"/>
  <g opacity="0.3">
    <circle cx="100" cy="100" r="2" fill="white"/>
    <circle cx="300" cy="150" r="2" fill="white"/>
    <circle cx="500" cy="200" r="2" fill="white"/>
    <circle cx="700" cy="100" r="2" fill="white"/>
    <circle cx="900" cy="300" r="2" fill="white"/>
    <circle cx="1100" cy="200" r="2" fill="white"/>
    <circle cx="1300" cy="400" r="2" fill="white"/>
    <circle cx="200" cy="300" r="2" fill="white"/>
    <circle cx="400" cy="400" r="2" fill="white"/>
    <circle cx="600" cy="500" r="2" fill="white"/>
    <circle cx="800" cy="600" r="2" fill="white"/>
    <circle cx="1000" cy="500" r="2" fill="white"/>
    <circle cx="1200" cy="600" r="2" fill="white"/>
    <circle cx="1400" cy="700" r="2" fill="white"/>
    <circle cx="100" cy="500" r="2" fill="white"/>
    <circle cx="300" cy="600" r="2" fill="white"/>
    <circle cx="500" cy="700" r="2" fill="white"/>
    <circle cx="700" cy="800" r="2" fill="white"/>
    <circle cx="900" cy="700" r="2" fill="white"/>
    <circle cx="1100" cy="800" r="2" fill="white"/>
    <circle cx="1300" cy="900" r="2" fill="white"/>
    
    <!-- Lines connecting dots -->
    <line x1="100" y1="100" x2="300" y2="150" stroke="white" stroke-width="0.5" opacity="0.2"/>
    <line x1="300" y1="150" x2="500" y2="200" stroke="white" stroke-width="0.5" opacity="0.2"/>
    <line x1="500" y1="200" x2="700" y2="100" stroke="white" stroke-width="0.5" opacity="0.2"/>
    <line x1="700" y1="100" x2="900" y2="300" stroke="white" stroke-width="0.5" opacity="0.2"/>
    <line x1="900" y1="300" x2="1100" y2="200" stroke="white" stroke-width="0.5" opacity="0.2"/>
    <line x1="1100" y1="200" x2="1300" y2="400" stroke="white" stroke-width="0.5" opacity="0.2"/>
    <line x1="200" y1="300" x2="400" y2="400" stroke="white" stroke-width="0.5" opacity="0.2"/>
    <line x1="400" y1="400" x2="600" y2="500" stroke="white" stroke-width="0.5" opacity="0.2"/>
    <line x1="600" y1="500" x2="800" y2="600" stroke="white" stroke-width="0.5" opacity="0.2"/>
    <line x1="800" y1="600" x2="1000" y2="500" stroke="white" stroke-width="0.5" opacity="0.2"/>
    <line x1="1000" y1="500" x2="1200" y2="600" stroke="white" stroke-width="0.5" opacity="0.2"/>
    <line x1="1200" y1="600" x2="1400" y2="700" stroke="white" stroke-width="0.5" opacity="0.2"/>
    <line x1="100" y1="500" x2="300" y2="600" stroke="white" stroke-width="0.5" opacity="0.2"/>
    <line x1="300" y1="600" x2="500" y2="700" stroke="white" stroke-width="0.5" opacity="0.2"/>
    <line x1="500" y1="700" x2="700" y2="800" stroke="white" stroke-width="0.5" opacity="0.2"/>
    <line x1="700" y1="800" x2="900" y2="700" stroke="white" stroke-width="0.5" opacity="0.2"/>
    <line x1="900" y1="700" x2="1100" y2="800" stroke="white" stroke-width="0.5" opacity="0.2"/>
    <line x1="1100" y1="800" x2="1300" y2="900" stroke="white" stroke-width="0.5" opacity="0.2"/>
    
    <!-- Cross connections -->
    <line x1="100" y1="100" x2="200" y2="300" stroke="white" stroke-width="0.5" opacity="0.2"/>
    <line x1="300" y1="150" x2="400" y2="400" stroke="white" stroke-width="0.5" opacity="0.2"/>
    <line x1="500" y1="200" x2="600" y2="500" stroke="white" stroke-width="0.5" opacity="0.2"/>
    <line x1="700" y1="100" x2="800" y2="600" stroke="white" stroke-width="0.5" opacity="0.2"/>
    <line x1="900" y1="300" x2="1000" y2="500" stroke="white" stroke-width="0.5" opacity="0.2"/>
    <line x1="1100" y1="200" x2="1200" y2="600" stroke="white" stroke-width="0.5" opacity="0.2"/>
    <line x1="1300" y1="400" x2="1400" y2="700" stroke="white" stroke-width="0.5" opacity="0.2"/>
  </g>
</svg>

